<svg width="24px" height="24px" viewBox="0 0 24 24" xmlns="http://www.w3.org/2000/svg" fill="currentColor">
    <path d="M19.433 12.982c.03.266.052.535.052.811 0 .277-.022.546-.052.812l1.688 1.318a.5.5 0 0 1 .155.521l-1.6 2.772a.5.5 0 0 1-.61.26l-1.994-.803a7.51 7.51 0 0 1-1.42 1.03l-.3 2.123a.5.5 0 0 1-.497.438h-3.2a.5.5 0 0 1-.497-.438l-.3-2.123a7.502 7.502 0 0 1-1.42-1.03l-1.994.803a.5.5 0 0 1-.61-.26l-1.6-2.772a.5.5 0 0 1 .155-.521l1.688-1.318a7.245 7.245 0 0 1-.052-.812c0-.276.022-.545.052-.811L2.81 11.664a.5.5 0 0 1-.155-.521l1.6-2.772a.5.5 0 0 1 .61-.26l1.994.803a7.51 7.51 0 0 1 1.42-1.03l.3-2.123a.5.5 0 0 1 .497-.438h3.2a.5.5 0 0 1 .497.438l.3 2.123a7.502 7.502 0 0 1 1.42 1.03l1.994-.803a.5.5 0 0 1 .61.26l1.6 2.772a.5.5 0 0 1-.155.521l-1.688 1.318zM12 15.5a3.5 3.5 0 1 1 0-7 3.5 3.5 0 0 1 0 7z"/>
</svg>
