<svg xmlns="http://www.w3.org/2000/svg" width="24" height="24" viewBox="0 0 24 24" fill="currentColor">
  <path d="M21.71,15.29l-2-2a1,1,0,0,0-1.42,1.42l.3.29h-.87A5,5,0,0,1,14,13.29l-3.41-3.9A7,7,0,0,0,5.28,7H3A1,1,0,0,0,3,9H5.28A5,5,0,0,1,9,10.71l3.41,3.9A7,7,0,0,0,17.72,17h.87l-.3.29a1,1,0,0,0,0,1.42,1,1,0,0,0,1.42,0l2-2A1,1,0,0,0,21.71,15.29Z"/>
  <path d="M21.71,7.29l-2-2a1,1,0,0,0-1.42,1.42l.3.29h-.87a7,7,0,0,0-5.27,2.39L9,13.29A5,5,0,0,1,5.28,15H3a1,1,0,0,0,0,2H5.28a7,7,0,0,0,5.27-2.39L14,10.71A5,5,0,0,1,17.72,9h.87l-.3.29a1,1,0,0,0,0,1.42,1,1,0,0,0,1.42,0l2-2A1,1,0,0,0,21.71,7.29Z"/>
</svg>
